<svg width="130" height="38" viewBox="0 0 130 38" fill="none" xmlns="http://www.w3.org/2000/svg">
<path d="M3.402 24.084C2.786 24.084 2.198 24 1.638 23.832C1.08733 23.664 0.653333 23.4587 0.336 23.216L0.896 22.152C1.21333 22.3667 1.60533 22.5487 2.072 22.698C2.53867 22.8473 3.01467 22.922 3.5 22.922C4.12533 22.922 4.57333 22.8333 4.844 22.656C5.124 22.4787 5.264 22.2313 5.264 21.914C5.264 21.6807 5.18 21.4987 5.012 21.368C4.844 21.2373 4.62 21.1393 4.34 21.074C4.06933 21.0087 3.766 20.9527 3.43 20.906C3.094 20.85 2.758 20.7847 2.422 20.71C2.086 20.626 1.778 20.514 1.498 20.374C1.218 20.2247 0.994 20.024 0.826 19.772C0.658 19.5107 0.574 19.1653 0.574 18.736C0.574 18.288 0.7 17.896 0.952 17.56C1.204 17.224 1.55867 16.9673 2.016 16.79C2.48267 16.6033 3.03333 16.51 3.668 16.51C4.15333 16.51 4.64333 16.5707 5.138 16.692C5.642 16.804 6.05267 16.9673 6.37 17.182L5.796 18.246C5.46 18.022 5.11 17.868 4.746 17.784C4.382 17.7 4.018 17.658 3.654 17.658C3.066 17.658 2.62733 17.756 2.338 17.952C2.04867 18.1387 1.904 18.3813 1.904 18.68C1.904 18.932 1.988 19.128 2.156 19.268C2.33333 19.3987 2.55733 19.5013 2.828 19.576C3.108 19.6507 3.416 19.716 3.752 19.772C4.088 19.8187 4.424 19.884 4.76 19.968C5.096 20.0427 5.39933 20.15 5.67 20.29C5.95 20.43 6.174 20.626 6.342 20.878C6.51933 21.13 6.608 21.466 6.608 21.886C6.608 22.334 6.47733 22.7213 6.216 23.048C5.95467 23.3747 5.586 23.6313 5.11 23.818C4.634 23.9953 4.06467 24.084 3.402 24.084ZM11.1017 24.084C10.3457 24.084 9.66901 23.9207 9.07167 23.594C8.48367 23.2673 8.02167 22.8193 7.68567 22.25C7.34967 21.6807 7.18167 21.0273 7.18167 20.29C7.18167 19.5527 7.34967 18.8993 7.68567 18.33C8.02167 17.7607 8.48367 17.3173 9.07167 17C9.66901 16.6733 10.3457 16.51 11.1017 16.51C11.7737 16.51 12.371 16.6453 12.8937 16.916C13.4257 17.1773 13.8363 17.5693 14.1257 18.092L13.1037 18.75C12.861 18.386 12.5623 18.12 12.2077 17.952C11.8623 17.7747 11.489 17.686 11.0877 17.686C10.6023 17.686 10.1683 17.7933 9.78567 18.008C9.40301 18.2227 9.09967 18.526 8.87567 18.918C8.65167 19.3007 8.53967 19.758 8.53967 20.29C8.53967 20.822 8.65167 21.284 8.87567 21.676C9.09967 22.068 9.40301 22.3713 9.78567 22.586C10.1683 22.8007 10.6023 22.908 11.0877 22.908C11.489 22.908 11.8623 22.824 12.2077 22.656C12.5623 22.4787 12.861 22.208 13.1037 21.844L14.1257 22.488C13.8363 23.0013 13.4257 23.398 12.8937 23.678C12.371 23.9487 11.7737 24.084 11.1017 24.084ZM15.4457 24V16.58H16.7337V18.596L16.6077 18.092C16.8131 17.5787 17.1584 17.1867 17.6437 16.916C18.1291 16.6453 18.7264 16.51 19.4357 16.51V17.812C19.3797 17.8027 19.3237 17.798 19.2677 17.798C19.2211 17.798 19.1744 17.798 19.1277 17.798C18.4091 17.798 17.8397 18.0127 17.4197 18.442C16.9997 18.8713 16.7897 19.492 16.7897 20.304V24H15.4457ZM23.7818 24.084C23.0352 24.084 22.3725 23.9207 21.7938 23.594C21.2152 23.2673 20.7578 22.8193 20.4218 22.25C20.0858 21.6713 19.9178 21.018 19.9178 20.29C19.9178 19.5527 20.0858 18.8993 20.4218 18.33C20.7578 17.7607 21.2152 17.3173 21.7938 17C22.3725 16.6733 23.0352 16.51 23.7818 16.51C24.5192 16.51 25.1772 16.6733 25.7558 17C26.3438 17.3173 26.8012 17.7607 27.1278 18.33C27.4638 18.89 27.6318 19.5433 27.6318 20.29C27.6318 21.0273 27.4638 21.6807 27.1278 22.25C26.8012 22.8193 26.3438 23.2673 25.7558 23.594C25.1772 23.9207 24.5192 24.084 23.7818 24.084ZM23.7818 22.908C24.2578 22.908 24.6825 22.8007 25.0558 22.586C25.4385 22.3713 25.7372 22.068 25.9518 21.676C26.1665 21.2747 26.2738 20.8127 26.2738 20.29C26.2738 19.758 26.1665 19.3007 25.9518 18.918C25.7372 18.526 25.4385 18.2227 25.0558 18.008C24.6825 17.7933 24.2578 17.686 23.7818 17.686C23.3058 17.686 22.8812 17.7933 22.5078 18.008C22.1345 18.2227 21.8358 18.526 21.6118 18.918C21.3878 19.3007 21.2758 19.758 21.2758 20.29C21.2758 20.8127 21.3878 21.2747 21.6118 21.676C21.8358 22.068 22.1345 22.3713 22.5078 22.586C22.8812 22.8007 23.3058 22.908 23.7818 22.908ZM29.0706 24V13.612H30.4146V24H29.0706ZM32.5607 24V13.612H33.9047V24H32.5607ZM42.4566 24.084C41.738 24.084 41.094 23.9253 40.5246 23.608C39.9646 23.2907 39.5213 22.8473 39.1946 22.278C38.868 21.7087 38.7046 21.046 38.7046 20.29C38.7046 19.534 38.868 18.876 39.1946 18.316C39.5213 17.7467 39.9646 17.3033 40.5246 16.986C41.094 16.6687 41.738 16.51 42.4566 16.51C43.082 16.51 43.6466 16.65 44.1506 16.93C44.6546 17.21 45.056 17.63 45.3546 18.19C45.6626 18.75 45.8166 19.45 45.8166 20.29C45.8166 21.13 45.6673 21.83 45.3686 22.39C45.0793 22.95 44.6826 23.3747 44.1786 23.664C43.6746 23.944 43.1006 24.084 42.4566 24.084ZM42.5686 22.908C43.0353 22.908 43.4553 22.8007 43.8286 22.586C44.2113 22.3713 44.51 22.068 44.7246 21.676C44.9486 21.2747 45.0606 20.8127 45.0606 20.29C45.0606 19.758 44.9486 19.3007 44.7246 18.918C44.51 18.526 44.2113 18.2227 43.8286 18.008C43.4553 17.7933 43.0353 17.686 42.5686 17.686C42.0926 17.686 41.668 17.7933 41.2946 18.008C40.9213 18.2227 40.6226 18.526 40.3986 18.918C40.1746 19.3007 40.0626 19.758 40.0626 20.29C40.0626 20.8127 40.1746 21.2747 40.3986 21.676C40.6226 22.068 40.9213 22.3713 41.2946 22.586C41.668 22.8007 42.0926 22.908 42.5686 22.908ZM45.1026 24V21.998L45.1866 20.276L45.0466 18.554V13.612H46.3906V24H45.1026ZM51.6916 24.084C50.9449 24.084 50.2823 23.9207 49.7036 23.594C49.1249 23.2673 48.6676 22.8193 48.3316 22.25C47.9956 21.6713 47.8276 21.018 47.8276 20.29C47.8276 19.5527 47.9956 18.8993 48.3316 18.33C48.6676 17.7607 49.1249 17.3173 49.7036 17C50.2823 16.6733 50.9449 16.51 51.6916 16.51C52.4289 16.51 53.0869 16.6733 53.6656 17C54.2536 17.3173 54.7109 17.7607 55.0376 18.33C55.3736 18.89 55.5416 19.5433 55.5416 20.29C55.5416 21.0273 55.3736 21.6807 55.0376 22.25C54.7109 22.8193 54.2536 23.2673 53.6656 23.594C53.0869 23.9207 52.4289 24.084 51.6916 24.084ZM51.6916 22.908C52.1676 22.908 52.5923 22.8007 52.9656 22.586C53.3483 22.3713 53.6469 22.068 53.8616 21.676C54.0763 21.2747 54.1836 20.8127 54.1836 20.29C54.1836 19.758 54.0763 19.3007 53.8616 18.918C53.6469 18.526 53.3483 18.2227 52.9656 18.008C52.5923 17.7933 52.1676 17.686 51.6916 17.686C51.2156 17.686 50.7909 17.7933 50.4176 18.008C50.0443 18.2227 49.7456 18.526 49.5216 18.918C49.2976 19.3007 49.1856 19.758 49.1856 20.29C49.1856 20.8127 49.2976 21.2747 49.5216 21.676C49.7456 22.068 50.0443 22.3713 50.4176 22.586C50.7909 22.8007 51.2156 22.908 51.6916 22.908ZM58.3433 24L55.5853 16.58H56.8593L59.3093 23.3H58.7073L61.2553 16.58H62.3893L64.8813 23.3H64.2933L66.7993 16.58H68.0033L65.2313 24H63.9433L61.6053 17.868H61.9973L59.6313 24H58.3433ZM72.9091 16.51C73.5157 16.51 74.0477 16.6267 74.5051 16.86C74.9717 17.0933 75.3357 17.448 75.5971 17.924C75.8584 18.4 75.9891 19.002 75.9891 19.73V24H74.6451V19.884C74.6451 19.1653 74.4677 18.624 74.1131 18.26C73.7677 17.896 73.2777 17.714 72.6431 17.714C72.1671 17.714 71.7517 17.8073 71.397 17.994C71.0424 18.1807 70.7671 18.456 70.5711 18.82C70.3844 19.184 70.2911 19.6367 70.2911 20.178V24H68.9471V16.58H70.2351V18.582L70.0251 18.05C70.2677 17.5647 70.6411 17.1867 71.1451 16.916C71.6491 16.6453 72.2371 16.51 72.9091 16.51Z" fill="white"/>
<ellipse cx="19" cy="19" rx="19" ry="19" transform="matrix(0 1 1 0 92 0)" fill="white"/>
<path d="M111.651 20.2834C111.566 20.3693 111.464 20.4375 111.352 20.484C111.241 20.5306 111.121 20.5545 111 20.5545C110.879 20.5545 110.759 20.5306 110.647 20.484C110.536 20.4375 110.434 20.3693 110.349 20.2834L106.151 16.0759C106.066 15.99 105.964 15.9218 105.852 15.8752C105.741 15.8287 105.621 15.8047 105.5 15.8047C105.379 15.8047 105.259 15.8287 105.147 15.8752C105.036 15.9218 104.934 15.99 104.849 16.0759C104.678 16.2476 104.583 16.48 104.583 16.7221C104.583 16.9643 104.678 17.1966 104.849 17.3684L109.057 21.5759C109.572 22.0909 110.271 22.3801 111 22.3801C111.729 22.3801 112.428 22.0909 112.943 21.5759L117.151 17.3684C117.32 17.1976 117.416 16.9672 117.417 16.7267C117.417 16.6061 117.394 16.4865 117.349 16.3748C117.303 16.2631 117.236 16.1615 117.151 16.0759C117.066 15.99 116.964 15.9218 116.852 15.8752C116.741 15.8287 116.621 15.8047 116.5 15.8047C116.379 15.8047 116.259 15.8287 116.147 15.8752C116.036 15.9218 115.934 15.99 115.849 16.0759L111.651 20.2834Z" fill="#FD9222"/>
</svg>
