<svg aria-hidden="true" style="position: absolute; width: 0; height: 0; overflow: hidden;" version="1.1" xmlns="http://www.w3.org/2000/svg" xmlns:xlink="http://www.w3.org/1999/xlink">
<defs>
<symbol id="icon-spoonicons" viewBox="0 0 20 20">
<path d="M9.657 8.816c-0.489-0.594-0.735-1.322-0.735-2.051 0-2.702 3.238-5.401 6.476-5.401 1.788 0 3.238 1.451 3.238 3.239 0 3.239-2.698 6.478-5.404 6.478-0.729 0-1.457-0.246-2.051-0.736l-7.974 7.976c-0.422 0.422-1.106 0.422-1.528 0s-0.422-1.107 0-1.528l7.977-7.976z"></path>
</symbol>
<symbol id="icon-chocolateicons" viewBox="0 0 20 20">
<path d="M8.639 1.508l4.704 4.71 0.050-0.050c0.099-0.096 0.231-0.151 0.368-0.153s0.271 0.050 0.372 0.145l0.546 0.546c0.191 0.191 0.197 0.481 0.052 0.684l-0.003 0.004-0.089 0.12 3.85 3.85c0.344 0.344 0.344 0.894 0 1.238l-5.894 5.894c-0.344 0.344-0.894 0.344-1.238 0l-2.779-2.779c-0.046 0.058-0.104 0.106-0.17 0.14s-0.138 0.054-0.213 0.058c-0.074 0.004-0.148-0.007-0.218-0.034s-0.132-0.067-0.185-0.12l-1.625-1.625c-0.096-0.098-0.151-0.231-0.153-0.368s0.050-0.271 0.145-0.372l0.004-0.004 0.048-0.048-4.704-4.704c-0.344-0.344-0.344-0.894 0-1.237l5.894-5.894c0.344-0.344 0.894-0.344 1.238 0v0.001zM12.752 6.808l-1.098-1.097c-0.034-0.036-0.076-0.064-0.121-0.083s-0.095-0.029-0.144-0.029c-0.050 0-0.099 0.010-0.144 0.029s-0.087 0.048-0.121 0.083l-2.238 2.237c-0.035 0.035-0.064 0.077-0.083 0.123s-0.029 0.096-0.029 0.146 0.010 0.099 0.029 0.146c0.019 0.046 0.047 0.088 0.083 0.123l1.093 1.093 0.381-0.381-0.978-0.978 2.006-2.013 0.981 0.984 0.383-0.383zM9.58 9.978l-1.096-1.096c-0.034-0.036-0.076-0.064-0.121-0.083s-0.095-0.029-0.144-0.029c-0.050 0-0.099 0.010-0.144 0.029s-0.087 0.048-0.121 0.083l-2.244 2.244c-0.15 0.144-0.15 0.381 0 0.531l1.095 1.095 0.385-0.385-0.981-0.978 2.012-2.006 0.978 0.977 0.383-0.382zM5.514 5.121l2.237 2.237c0.15 0.15 0.387 0.15 0.531-0.006l2.238-2.237c0.036-0.034 0.064-0.075 0.083-0.12s0.029-0.094 0.029-0.143h0.006c0-0.094-0.037-0.194-0.113-0.269l-2.237-2.237c-0.035-0.036-0.077-0.064-0.123-0.083s-0.096-0.029-0.146-0.029c-0.050 0-0.099 0.010-0.146 0.029s-0.088 0.047-0.123 0.083l-2.237 2.244c-0.15 0.144-0.15 0.381 0 0.531zM2.345 8.289l2.237 2.238c0.15 0.15 0.388 0.15 0.531 0l2.237-2.238c0.036-0.035 0.065-0.076 0.084-0.123s0.029-0.096 0.028-0.146h0.006c0-0.1-0.038-0.194-0.112-0.269l-2.237-2.237c-0.034-0.036-0.076-0.064-0.121-0.083s-0.095-0.029-0.144-0.029c-0.050 0-0.099 0.010-0.144 0.029s-0.087 0.048-0.121 0.083l-2.244 2.244c-0.15 0.144-0.15 0.381 0 0.531zM6.678 13.761l1.476 1.477 6.022-8.15-0.409-0.409-7.089 7.083z"></path>
<path d="M8.639 1.508l4.704 4.71 0.050-0.050c0.099-0.096 0.231-0.151 0.368-0.153s0.271 0.050 0.372 0.145l0.546 0.546c0.191 0.191 0.197 0.481 0.052 0.684l-0.003 0.004-0.089 0.12 3.85 3.85c0.344 0.344 0.344 0.894 0 1.238l-5.894 5.894c-0.344 0.344-0.894 0.344-1.238 0l-2.779-2.779c-0.046 0.058-0.104 0.106-0.17 0.14s-0.138 0.054-0.213 0.058c-0.074 0.004-0.148-0.007-0.218-0.034s-0.132-0.067-0.185-0.12l-1.625-1.625c-0.096-0.098-0.151-0.231-0.153-0.368s0.050-0.271 0.145-0.372l0.004-0.004 0.048-0.048-4.704-4.704c-0.344-0.344-0.344-0.894 0-1.237l5.894-5.894c0.344-0.344 0.894-0.344 1.238 0v0.001zM12.752 6.808l-1.098-1.097c-0.034-0.036-0.076-0.064-0.121-0.083s-0.095-0.029-0.144-0.029c-0.050 0-0.099 0.010-0.144 0.029s-0.087 0.048-0.121 0.083l-2.238 2.237c-0.035 0.035-0.064 0.077-0.083 0.123s-0.029 0.096-0.029 0.146 0.010 0.099 0.029 0.146c0.019 0.046 0.047 0.088 0.083 0.123l1.093 1.093 0.381-0.381-0.978-0.978 2.006-2.013 0.981 0.984 0.383-0.383zM9.58 9.978l-1.096-1.096c-0.034-0.036-0.076-0.064-0.121-0.083s-0.095-0.029-0.144-0.029c-0.050 0-0.099 0.010-0.144 0.029s-0.087 0.048-0.121 0.083l-2.244 2.244c-0.15 0.144-0.15 0.381 0 0.531l1.095 1.095 0.385-0.385-0.981-0.978 2.012-2.006 0.978 0.977 0.383-0.382zM5.514 5.121l2.237 2.237c0.15 0.15 0.387 0.15 0.531-0.006l2.238-2.237c0.036-0.034 0.064-0.075 0.083-0.12s0.029-0.094 0.029-0.143h0.006c0-0.094-0.037-0.194-0.113-0.269l-2.237-2.237c-0.035-0.036-0.077-0.064-0.123-0.083s-0.096-0.029-0.146-0.029c-0.050 0-0.099 0.010-0.146 0.029s-0.088 0.047-0.123 0.083l-2.237 2.244c-0.15 0.144-0.15 0.381 0 0.531zM2.345 8.289l2.237 2.238c0.15 0.15 0.388 0.15 0.531 0l2.237-2.238c0.036-0.035 0.065-0.076 0.084-0.123s0.029-0.096 0.028-0.146h0.006c0-0.1-0.038-0.194-0.112-0.269l-2.237-2.237c-0.034-0.036-0.076-0.064-0.121-0.083s-0.095-0.029-0.144-0.029c-0.050 0-0.099 0.010-0.144 0.029s-0.087 0.048-0.121 0.083l-2.244 2.244c-0.15 0.144-0.15 0.381 0 0.531zM6.678 13.761l1.476 1.477 6.022-8.15-0.409-0.409-7.089 7.083z"></path>
</symbol>
<symbol id="icon-praceicons" viewBox="0 0 20 20">
<path d="M10 1.667c-4.583 0-8.333 3.75-8.333 8.333s3.75 8.333 8.333 8.333c4.583 0 8.333-3.75 8.333-8.333s-3.75-8.333-8.333-8.333zM10 16.667c-3.667 0-6.667-3-6.667-6.667s3-6.667 6.667-6.667c3.667 0 6.667 3 6.667 6.667s-3 6.667-6.667 6.667z"></path>
<path d="M11.083 9.167h-2.167c-0.417 0-0.75-0.333-0.75-0.75s0.333-0.75 0.75-0.75h3.083c0.5 0 0.833-0.333 0.833-0.833s-0.333-0.833-0.833-0.833h-1.167v-0.75c0-0.5-0.333-0.833-0.833-0.833s-0.833 0.333-0.833 0.833v0.75h-0.25c-1.333 0-2.417 1.083-2.417 2.417s1.083 2.417 2.417 2.417h2.083c0.417 0 0.75 0.333 0.75 0.75s-0.333 0.75-0.75 0.75h-3.083c-0.5 0-0.833 0.333-0.833 0.833s0.333 0.833 0.833 0.833h1.25v0.75c0 0.5 0.333 0.833 0.833 0.833s0.833-0.333 0.833-0.833v-0.75h0.25c1.333 0 2.417-1.083 2.417-2.417s-1.083-2.417-2.417-2.417z"></path>
</symbol>
<symbol id="icon-chocolate" viewBox="0 0 20 20">
<path fill="#fcf1e0" style="fill: var(--color1, #fcf1e0)" d="M2.465 12.547l6.736-10.89 0.4-0.421 5.147 3.432 0.035 2.071 1.256 2.050-5.55 8.798-8.025-5.039z"></path>
<path fill="none" stroke="#fd9222" style="stroke: var(--color2, #fd9222)" stroke-linejoin="round" stroke-linecap="round" stroke-miterlimit="4" stroke-width="1.6667" d="M13.522 14.925l-8.866-5.54M7.101 5.374l8.866 5.54M6.644 16.165l7.335-12.031M16.985 9.243c-1.9-1.187-2.646-2.115-1.424-4.12l-6.016-3.759-7.335 12.031 8.866 5.54 5.908-9.692z"></path>
</symbol>
<symbol id="icon-instagram" viewBox="0 0 20 20">
<path stroke-linejoin="round" stroke-linecap="round" stroke-miterlimit="4" stroke-width="1.6667" d="M14.167 1.667h-8.333c-2.301 0-4.167 1.865-4.167 4.167v8.333c0 2.301 1.865 4.167 4.167 4.167h8.333c2.301 0 4.167-1.866 4.167-4.167v-8.333c0-2.301-1.866-4.167-4.167-4.167z"></path>
<path stroke-linejoin="round" stroke-linecap="round" stroke-miterlimit="4" stroke-width="1.6667" d="M13.333 9.475c0.103 0.693-0.016 1.402-0.339 2.024s-0.834 1.127-1.46 1.442c-0.626 0.315-1.336 0.425-2.028 0.314s-1.332-0.438-1.827-0.934-0.823-1.135-0.934-1.827c-0.111-0.692-0.002-1.402 0.314-2.028s0.82-1.137 1.442-1.46c0.622-0.323 1.331-0.441 2.024-0.339 0.707 0.105 1.362 0.435 1.868 0.94s0.835 1.161 0.94 1.868z"></path>
<path stroke-linejoin="round" stroke-linecap="round" stroke-miterlimit="4" stroke-width="1.6667" d="M14.583 5.417h0.008"></path>
</symbol>
<symbol id="icon-play" viewBox="0 0 20 20">
<path fill="#f5f4f4" style="fill: var(--color3, #f5f4f4)" d="M6.818 15v-9.545l9.091 4.773-9.091 4.773z"></path>
<path fill="none" stroke="#fff" style="stroke: var(--color4, #fff)" stroke-linejoin="miter" stroke-linecap="butt" stroke-miterlimit="4" stroke-width="0.4545" d="M19.773 10c0 5.397-4.375 9.773-9.773 9.773s-9.773-4.375-9.773-9.773c0-5.397 4.375-9.773 9.773-9.773s9.773 4.375 9.773 9.773z"></path>
</symbol>
<symbol id="icon-scrolllink" viewBox="0 0 20 20">
<path d="M10.592 11.167c-0.078 0.078-0.17 0.14-0.271 0.182s-0.211 0.064-0.321 0.064-0.219-0.022-0.32-0.064c-0.102-0.042-0.194-0.104-0.271-0.182l-3.817-3.825c-0.077-0.078-0.17-0.14-0.271-0.182s-0.21-0.064-0.32-0.064c-0.11 0-0.219 0.022-0.32 0.064s-0.194 0.104-0.271 0.182c-0.155 0.156-0.242 0.367-0.242 0.587s0.087 0.431 0.242 0.587l3.825 3.825c0.469 0.468 1.104 0.731 1.767 0.731s1.298-0.263 1.767-0.731l3.825-3.825c0.154-0.155 0.241-0.365 0.242-0.583 0.001-0.11-0.020-0.218-0.062-0.32s-0.103-0.194-0.18-0.272c-0.078-0.078-0.17-0.14-0.271-0.182s-0.211-0.064-0.321-0.064c-0.11 0-0.219 0.022-0.32 0.064s-0.194 0.104-0.271 0.182l-3.817 3.825z"></path>
</symbol>
<symbol id="icon-twitter" viewBox="0 0 20 20">
<path stroke-linejoin="round" stroke-linecap="round" stroke-miterlimit="4" stroke-width="1.6667" d="M19.167 2.5c-0.798 0.563-1.682 0.993-2.617 1.275-0.502-0.577-1.169-0.986-1.911-1.172s-1.523-0.139-2.237 0.134c-0.714 0.273-1.328 0.758-1.758 1.391s-0.654 1.382-0.644 2.147v0.833c-1.464 0.038-2.916-0.287-4.224-0.945s-2.851-2.227-3.692-3.426c0 0-2.917 8.096 4.583 11.43-1.716 1.165-3.761 1.749-5.833 1.667 7.5 4.167 16.667 0 16.667-9.583-0.001-0.232-0.023-0.464-0.067-0.692 0.851-0.839 1.451-1.898 1.733-3.058z"></path>
</symbol>
</defs>
</svg>
